{"title":"Hurricane Season(2009)BRRip.XviD-WDR","uid":7073307,"size":1484277477,"categoryP":"video","categoryS":"movies","magnet":"?xt=urn:btih:c00237bc754e2bd9dac554aebb767747af579bb6&amp;dn=Hurricane+Season%282009%29BRRip.XviD-WDR&amp;tr=udp%3A%2F%2Ftracker.openbittorrent.com%3A80&amp;tr=udp%3A%2F%2Fopen.demonii.com%3A1337&amp;tr=udp%3A%2F%2Ftracker.coppersurfer.tk%3A6969&amp;tr=udp%3A%2F%2Fexodus.desync.com%3A6969","seeders":0,"leechers":2,"uploader":"TvTeam","files":4,"time":1330748284,"description":". \n &lt;a href=&quot;\nhttp://www.torrenting.com&quot; rel=&quot;nofollow&quot; target=&quot;_NEW&quot;&gt;\nhttp://www.torrenting.com&lt;/a&gt;          :     Once &amp; For all ;)\n\n\n               www . Torrenting . Com \n\n(((((((((((((= Enjoy No RAR releases =))))))))))))))))))))\n\n\n...................................NFO:....................................\n\n.   Video\n      Format : MPEG-4 Visual\n      Format profile : Streaming Video@L1\n      Format settings, BVOP : Yes\n      Format settings, QPel : No\n      Format settings, GMC : No warppoints\n      Format settings, Matrix : Default\n      Codec ID : XVID\n      Codec ID/Hint : XviD\n      Duration : 1h 15mn\n      Bit rate : 2 421 Kbps\n      Width : 720 pixels\n      Height : 400 pixels\n      Display aspect ratio : 16/9\n      Frame rate : 23.976 fps\n      Resolution : 24 bits\n      Colorimetry : 4:2:0\n      Scan type : Progressive\n      Bits/(Pixel*Frame) : 0.351\n      Stream size : 1.28 GiB (93%)\n      Writing library : XviD 50\n   Audio\n      Format : MPEG Audio\n      Format version : Version 1\n      Format profile : Layer 3\n      Codec ID : 55\n      Codec ID/Hint : MP3\n      Duration : 1h 42mn\n      Bit rate mode : Constant\n      Bit rate : 128 Kbps\n      Channel(s) : 2 channels\n      Sampling rate : 44.1 KHz\n      Resolution : 16 bits\n      Stream size : 93.8 MiB (7%)\n      Alignment : Aligned on interleaves\n      Interleave, duration : 26 ms (0.63 video frame)\n      Interleave, preload duration : 522 ms\n      Writing library : LAME3.98","torrent":{"xt":"urn:btih:c00237bc754e2bd9dac554aebb767747af579bb6","amp;dn":"Hurricane+Season%282009%29BRRip.XviD-WDR","amp;tr":["udp%3A%2F%2Ftracker.openbittorrent.com%3A80","udp%3A%2F%2Fopen.demonii.com%3A1337","udp%3A%2F%2Ftracker.coppersurfer.tk%3A6969","udp%3A%2F%2Fexodus.desync.com%3A6969"],"infoHash":"c00237bc754e2bd9dac554aebb767747af579bb6","infoHashBuffer":{"type":"Buffer","data":[192,2,55,188,117,78,43,217,218,197,84,174,187,118,119,71,175,87,155,182]},"announce":[],"urlList":[]}}